Coordinates
version=1
nRows=38
nColumns=38
inDegrees=no

Units are S.I. units (second, meters, Newtons, ...)
If the header above contains a line with 'inDegrees', this indicates whether rotational values are in degrees (yes) or radians (no).

endheader
time	pelvis_tilt	pelvis_list	pelvis_rotation	pelvis_tx	pelvis_ty	pelvis_tz	hip_flexion_r	hip_adduction_r	hip_rotation_r	knee_angle_r	ankle_angle_r	subtalar_angle_r	mtp_angle_r	hip_flexion_l	hip_adduction_l	hip_rotation_l	knee_angle_l	ankle_angle_l	subtalar_angle_l	mtp_angle_l	lumbar_extension	lumbar_bending	lumbar_rotation	arm_flex_r	arm_add_r	arm_rot_r	elbow_flex_r	pro_sup_r	wrist_flex_r	wrist_dev_r	arm_flex_l	arm_add_l	arm_rot_l	elbow_flex_l	pro_sup_l	wrist_flex_l	wrist_dev_l
0	-2.74658	1.45527	1.28133	0.730886	1.7509	0.898307	0.366561	-0.196225	-0.0179182	0.945088	-0.168549	0	0	-0.0763729	0.00356941	-0.257419	0	-0.266182	0	0	0.0667137	0.04165	0.092719	-0.10103	-0.123892	-0.377328	0.663005	1.10298	0	0	0.156065	-0.0802864	0.890462	0.316575	1.5708	0	0
0.01	-2.68986	1.47049	1.22657	0.731713	1.74989	0.899364	0.370378	-0.195465	-0.0137485	0.982879	-0.171578	0	0	-0.0959589	0.00315021	-0.257318	0	-0.265195	0	0	0.0385853	0.0368256	0.0677551	-0.0827032	-0.127374	-0.349635	0.65444	1.09886	0	0	0.138447	-0.0876329	0.560316	0.342921	1.5708	0	0
0.02	-2.61151	1.47491	1.15334	0.733353	1.74862	0.900049	0.381679	-0.191907	-0.0159835	1.01314	-0.177432	0	0	-0.104902	-0.00207981	-0.256858	0	-0.264294	0	0	0.027007	0.0428344	0.0568593	-0.0813001	-0.12987	-0.348141	0.656215	1.09821	0	0	0.146119	-0.0821066	0.514325	0.331487	1.5708	0	0
0.03	-2.53064	1.47829	1.07277	0.734268	1.7468	0.90074	0.394195	-0.185732	-0.014362	1.03956	-0.181218	0	0	-0.114995	-0.00693995	-0.259482	0	-0.262711	0	0	0.017158	0.0482276	0.0526755	-0.0820424	-0.131293	-0.349332	0.657824	1.09819	0	0	0.141331	-0.0807085	0.492513	0.343124	1.5708	0	0
0.04	-2.46376	1.47772	1.01103	0.735709	1.74539	0.901092	0.408926	-0.182087	-0.0188501	1.06017	-0.18265	0	0	-0.118929	-0.0128284	-0.258807	0	-0.261636	0	0	0.0112332	0.0544367	0.0439552	-0.0825764	-0.133057	-0.351505	0.65858	1.09842	0	0	0.143369	-0.0797985	0.4946	0.344813	1.5708	0	0
0.05	-2.40455	1.47693	0.955996	0.736817	1.74405	0.901456	0.423785	-0.177885	-0.0211048	1.07657	-0.183808	0	0	-0.12305	-0.0183381	-0.2542	0	-0.259746	0	0	0.00471867	0.0596589	0.0356792	-0.0832169	-0.13419	-0.354483	0.660513	1.09889	0	0	0.146664	-0.0793685	0.490597	0.345778	1.5708	0	0
0.06	-2.35449	1.47672	0.905366	0.737921	1.7418	0.902003	0.436771	-0.172964	-0.0186379	1.08617	-0.184922	0	0	-0.130693	-0.0211538	-0.256669	0	-0.258932	0	0	-5.65924e-05	0.0647051	0.0312114	-0.0856019	-0.136284	-0.355863	0.662284	1.09905	0	0	0.149737	-0.0783175	0.4949	0.342893	1.5708	0	0
0.07	-2.30669	1.47206	0.860183	0.739064	1.73983	0.902065	0.451547	-0.165777	-0.0187625	1.08985	-0.185341	0	0	-0.131719	-0.0273767	-0.261999	0	-0.257812	0	0	-0.00103176	0.0727301	0.0235551	-0.0874728	-0.138347	-0.357212	0.663308	1.09919	0	0	0.153548	-0.0777595	0.505409	0.339853	1.5708	0	0
0.08	-2.27768	1.46477	0.833408	0.739739	1.73804	0.901815	0.470124	-0.155953	-0.0155407	1.09052	-0.187689	0	0	-0.12899	-0.0350238	-0.262221	0	-0.252328	0	0	0.000114186	0.0798116	0.0155454	-0.088051	-0.138512	-0.361355	0.663092	1.09997	0	0	0.146993	-0.0736658	0.458258	0.350281	1.5708	0	0
0.09	-2.24815	1.45942	0.805062	0.740619	1.7359	0.901861	0.484963	-0.147454	-0.0124731	1.08443	-0.189394	0	0	-0.129687	-0.0409534	-0.264128	0	-0.250622	0	0	0.000140053	0.0868882	0.00993276	-0.0900912	-0.139702	-0.365586	0.663221	1.10058	0	0	0.148047	-0.0716666	0.453278	0.350477	1.5708	0	0
0.1	-2.22131	1.45457	0.777945	0.741381	1.73362	0.901858	0.4991	-0.138466	-0.00799264	1.07442	-0.191259	0	0	-0.131425	-0.0462719	-0.267699	0	-0.248851	0	0	-0.000560137	0.0933729	0.00530886	-0.0918522	-0.140904	-0.369913	0.663231	1.10129	0	0	0.148968	-0.0709032	0.450485	0.352987	1.5708	0	0
0.11	-2.19519	1.45006	0.750132	0.742014	1.73118	0.901883	0.512234	-0.128775	-0.00253858	1.06038	-0.193191	0	0	-0.134165	-0.0512154	-0.272742	0	-0.247437	0	0	-0.00166525	0.100159	0.00278314	-0.0942698	-0.142229	-0.375024	0.663867	1.10212	0	0	0.149093	-0.0692744	0.445269	0.355831	1.5708	0	0
0.12	-2.16304	1.44825	0.716796	0.742841	1.72865	0.902146	0.521313	-0.121359	0.00271201	1.04292	-0.194074	0	0	-0.139746	-0.0542887	-0.277857	0	-0.245981	0	0	-0.00597637	0.105503	-0.000341875	-0.0958735	-0.143596	-0.379834	0.664191	1.10306	0	0	0.150243	-0.0679851	0.441939	0.358786	1.5708	0	0
0.13	-2.14227	1.44571	0.693927	0.743285	1.72622	0.902169	0.532413	-0.113096	0.0103163	1.02446	-0.19367	0	0	-0.143646	-0.0573939	-0.281214	0	-0.243651	0	0	-0.00936956	0.109815	-0.00273288	-0.0966098	-0.144216	-0.384943	0.663452	1.10412	0	0	0.152229	-0.0680373	0.440856	0.362654	1.5708	0	0
0.14	-2.13637	1.44254	0.68426	0.743378	1.72359	0.902041	0.545286	-0.103678	0.0209902	1.00472	-0.192226	0	0	-0.146654	-0.0595884	-0.282754	0	-0.240745	0	0	-0.0106124	0.112991	-0.00363142	-0.097099	-0.144187	-0.390905	0.660945	1.10532	0	0	0.154064	-0.0682156	0.439421	0.366131	1.5708	0	0
0.15	-2.14385	1.43705	0.690554	0.743482	1.7211	0.901476	0.560466	-0.0945284	0.0296876	0.983902	-0.190087	0	0	-0.144959	-0.0634857	-0.280656	0	-0.2369	0	0	-0.00869225	0.11665	-0.00676796	-0.0978964	-0.143615	-0.39802	0.658559	1.1066	0	0	0.156451	-0.068255	0.438036	0.369477	1.5708	0	0
0.16	-2.14292	1.43358	0.687693	0.743716	1.71826	0.901045	0.572108	-0.0879431	0.0346803	0.961149	-0.187968	0	0	-0.146747	-0.0659581	-0.282226	0	-0.233642	0	0	-0.0087874	0.119689	-0.00903313	-0.0989036	-0.143299	-0.405386	0.656295	1.10788	0	0	0.158513	-0.0690344	0.438847	0.3737	1.5708	0	0
0.17	-2.14381	1.43076	0.685905	0.743857	1.71534	0.900588	0.583009	-0.0811993	0.0410786	0.936889	-0.185761	0	0	-0.148805	-0.0676641	-0.284874	0	-0.230021	0	0	-0.0093234	0.122078	-0.0103147	-0.0999612	-0.142979	-0.412727	0.654127	1.10915	0	0	0.160456	-0.0706019	0.440663	0.378611	1.5708	0	0
0.18	-2.15221	1.42763	0.691079	0.743845	1.71241	0.900015	0.595178	-0.0738829	0.0497853	0.912962	-0.184155	0	0	-0.149487	-0.0690611	-0.287294	0	-0.226188	0	0	-0.00889553	0.12388	-0.0107715	-0.100596	-0.142217	-0.421278	0.651056	1.11044	0	0	0.163139	-0.0722372	0.444111	0.382362	1.5708	0	0
0.19	-2.16725	1.42413	0.703199	0.743804	1.70947	0.899317	0.60825	-0.0667041	0.0591803	0.888754	-0.183477	0	0	-0.148757	-0.0702021	-0.288603	0	-0.222577	0	0	-0.00737655	0.125228	-0.0112822	-0.101012	-0.141222	-0.430717	0.647402	1.11154	0	0	0.167248	-0.0736625	0.450475	0.383781	1.5708	0	0
0.2	-2.18047	1.42071	0.714978	0.743878	1.70641	0.898576	0.620076	-0.0611032	0.0647413	0.863254	-0.183482	0	0	-0.148287	-0.0715741	-0.288951	0	-0.219572	0	0	-0.00576427	0.126649	-0.0127197	-0.101761	-0.140443	-0.43971	0.643783	1.11222	0	0	0.172828	-0.07529	0.462341	0.383151	1.5708	0	0
0.21	-2.18685	1.4175	0.721848	0.744285	1.70303	0.897924	0.629725	-0.0574731	0.0650789	0.837171	-0.183136	0	0	-0.148801	-0.0735166	-0.288691	0	-0.217731	0	0	-0.00425144	0.129605	-0.0171694	-0.102549	-0.140408	-0.447083	0.640779	1.11233	0	0	0.180035	-0.0774367	0.483874	0.379059	1.5708	0	0
0.22	-2.12659	1.43691	0.68292	0.745245	1.69656	0.896831	0.562134	-0.0867801	-0.00964658	0.712516	-0.1677	0	0	-0.176024	-0.0685654	-0.283517	0	-0.208648	0	0	-0.0181295	0.11398	-0.0378228	-0.111299	-0.128633	-0.469311	0.645226	1.1098	0	0	0.166712	-0.0880817	0.449196	0.413114	1.5708	0	0
0.23	-2.16707	1.41643	0.700012	0.744592	1.69585	0.896856	0.639343	-0.0480345	0.0696829	0.782459	-0.174586	0	0	-0.159612	-0.0766263	-0.295609	0	-0.202295	0	0	-0.0115458	0.13251	-0.0212203	-0.100934	-0.135393	-0.478839	0.63437	1.10822	0	0	0.178967	-0.0770604	0.445957	0.395922	1.5708	0	0
0.24	-2.17344	1.41588	0.704803	0.744518	1.69226	0.896156	0.647511	-0.0450951	0.0706879	0.758713	-0.167601	0	0	-0.16323	-0.0764963	-0.298721	0	-0.19547	0	0	-0.0130646	0.132275	-0.0218054	-0.100453	-0.133718	-0.489986	0.630136	1.10716	0	0	0.182361	-0.0787152	0.445548	0.399108	1.5708	0	0
0.25	-2.18864	1.41549	0.719399	0.744462	1.68871	0.895438	0.657044	-0.0437401	0.0709412	0.736922	-0.159882	0	0	-0.166781	-0.0751918	-0.302018	0	-0.185485	0	0	-0.013615	0.13082	-0.0233941	-0.0994169	-0.131761	-0.50074	0.625274	1.10544	0	0	0.186567	-0.0800977	0.445603	0.400639	1.5708	0	0
0.26	-2.21955	1.41046	0.749658	0.744552	1.68463	0.894199	0.669426	-0.0408518	0.0697736	0.712353	-0.152014	0	0	-0.16306	-0.0762611	-0.304684	0	-0.166734	0	0	-0.00691638	0.131955	-0.0258562	-0.101109	-0.130683	-0.510704	0.622063	1.10299	0	0	0.189312	-0.0800433	0.445394	0.399484	1.5708	0	0
0.27	-2.23131	1.39981	0.763403	0.744666	1.6811	0.891612	0.685805	-0.0335093	0.065603	0.69422	-0.146406	0	0	-0.137599	-0.0884427	-0.295349	0.0272115	-0.146799	0	0	0.00147962	0.139833	-0.0282726	-0.105819	-0.131723	-0.517016	0.624662	1.10047	0	0	0.191579	-0.0801935	0.444467	0.404258	1.5708	0	0
0.28	-2.29797	1.35343	0.831157	0.744462	1.67713	0.88383	0.741649	-0.00927546	0.0629487	0.685492	-0.134246	0	0	0.00106265	-0.153206	-0.361072	0.290799	0.00339727	0	0	0.05456	0.168172	-0.0300878	-0.129508	-0.134635	-0.53506	0.645287	1.068	0	0	0.183185	-0.0757493	0.442021	0.413043	1.5708	0	0
0.29	-2.27031	1.34872	0.798997	0.744206	1.67227	0.882238	0.742162	0.00403857	0.0643498	0.661247	-0.125017	0	0	0.00527929	-0.165995	-0.36593	0.32506	0.0193067	0	0	0.0525554	0.178737	-0.0247865	-0.135504	-0.134877	-0.548708	0.651756	1.05652	0	0	0.186006	-0.0740373	0.441841	0.41569	1.5708	0	0
0.3	-2.26479	1.35483	0.791475	0.744487	1.66741	0.882268	0.735535	0.00424592	0.0671452	0.635276	-0.118349	0	0	-0.0137695	-0.160848	-0.374471	0.308623	0.0120156	0	0	0.044296	0.176373	-0.0235079	-0.133539	-0.134234	-0.558839	0.646514	1.04638	0	0	0.191137	-0.0732055	0.440243	0.412687	1.5708	0	0
0.31	-2.1255	1.40238	0.647604	0.743636	1.6622	0.889365	0.670106	-0.00462763	0.0734074	0.594082	-0.115793	0	0	-0.136189	-0.117597	-0.385755	0.147313	-0.0709391	0	0	-0.0243348	0.154139	-0.0173601	-0.108961	-0.12704	-0.574402	0.622735	1.01499	0	0	0.208712	-0.0779657	0.436121	0.405475	1.5708	0	0
0.32	-2.17018	1.39666	0.696137	0.744012	1.65792	0.887336	0.681785	-0.00483305	0.0759164	0.578045	-0.108658	0	0	-0.122432	-0.121102	-0.382973	0.168234	-0.0612578	0	0	-0.0146607	0.155366	-0.0218524	-0.110611	-0.126712	-0.585974	0.621002	0.989984	0	0	0.211402	-0.0765127	0.431877	0.403283	1.5708	0	0
0.33	-2.23343	1.41238	0.76788	0.745668	1.65385	0.88787	0.681973	-0.029205	0.0728669	0.569159	-0.101883	0	0	-0.196928	-0.0758484	-0.312242	0	-0.140919	0	0	-0.0212485	0.135913	-0.0322287	-0.103118	-0.128131	-0.588867	0.605755	0.887381	0	0	0.221221	-0.07798	0.439577	0.393747	1.5708	0	0
0.34	-2.24786	1.41648	0.784923	0.746016	1.64877	0.88715	0.682824	-0.0331429	0.0739505	0.562052	-0.0936457	0	0	-0.20855	-0.0713519	-0.323353	0	-0.133064	0	0	-0.0241887	0.132721	-0.0357419	-0.0990665	-0.120211	-0.597128	0.604799	1.17222	0	0	0.223757	-0.0773594	0.430868	0.393285	1.5708	0	0
0.35	-2.1844	1.39826	0.717947	0.74482	1.64273	0.883707	0.688833	-0.00544023	0.0786285	0.555819	-0.0827983	0	0	-0.129037	-0.126595	-0.398772	0.199088	-0.0407488	0	0	-0.0169685	0.157189	-0.0258564	-0.11278	-0.121258	-0.609553	0.62161	1.17273	0	0	0.224703	-0.0758537	0.441396	0.397693	1.5708	0	0
0.36	-2.17506	1.40261	0.710247	0.745024	1.63711	0.883297	0.685434	-0.00635114	0.0786935	0.551244	-0.0796438	0	0	-0.143289	-0.1235	-0.397407	0.191405	-0.0446744	0	0	-0.0222548	0.15765	-0.0264082	-0.112306	-0.121606	-0.61553	0.620586	1.17434	0	0	0.234314	-0.0771776	0.466418	0.386496	1.5708	0	0
0.37	-2.21787	1.42815	0.762843	0.746555	1.63273	0.884798	0.677621	-0.0358238	0.073764	0.555642	-0.0787295	0	0	-0.238869	-0.0698857	-0.321327	0	-0.129182	0	0	-0.0418529	0.13203	-0.0385039	-0.0986031	-0.120597	-0.625311	0.605496	1.05347	0	0	0.233521	-0.078796	0.425951	0.39686	1.5708	0	0
